# xmcd CD database file
#
# Track frame offsets:
#	150
#	15535
#	29555
#	46260
#	61787
#	77800
#	92042
#	108555
#	123675
#	138970
#	155262
#	171217
#	184655
#	197560
#	211260
#	228105
#	245057
#	260245
#	276252
#
# Disc length: 3888 seconds
#
# Revision: 0
# Processed by: cddbd v1.5.2PL0 Copyright (c) Steve Scherf et al.
# Submitted via: CDex 1.70beta2
#
DISCID=0a0f2e13
DTITLE=Jones Country - Jones Country JCY-019
DYEAR=0000
DGENRE=Country
TTITLE0=John Schneider/You're The Last Thing I Needed Tonight
TTITLE1=Dan Seals/Three Time Loser
TTITLE2=Ricky Van Shelton/Life's Little Ups And Downs
TTITLE3=Ricky Van Shelton/Living Proof
TTITLE4=T G Sheppard/Party Time
TTITLE5=T G Sheppard/Somewhere Down The Line
TTITLE6=T G Sheppard/Strong Heart
TTITLE7=T G Sheppard/You're My First Lady
TTITLE8=Ricky Skaggs/Don't Cheat In Our Hometown
TTITLE9=Southern Pacific/Any Way The Wind Blows
TTITLE10=Ray Stevens/Everything Is Beautiful
TTITLE11=Sweethearts Of The Rodeo/Blue To The Bone
TTITLE12=Sweethearts Of The Rodeo/Chains Of Gold
TTITLE13=Sylvia/Fallin' In Love
TTITLE14=Sylvia/Like Nothing Ever Happened
TTITLE15=Sylvia/Snapshot
TTITLE16=B J Thomas/(Hey Won't You Play) Another Somebody Done Somebody Wrong Song
TTITLE17=B J Thomas/Two Car Garage
TTITLE18=B J Thomas/Whatever Happened To Old Fashioned Love
EXTD=YEAR: 0000
EXTT0=
EXTT1=
EXTT2=
EXTT3=
EXTT4=
EXTT5=
EXTT6=
EXTT7=
EXTT8=
EXTT9=
EXTT10=
EXTT11=
EXTT12=
EXTT13=
EXTT14=
EXTT15=
EXTT16=
EXTT17=
EXTT18=
PLAYORDER=
